<svg xmlns="http://www.w3.org/2000/svg" width="26" height="26" viewBox="0 0 26 26">
    <g>
        <path d="M58.06 38.419l-.011.011-2.249 2.406-11.966-.607a.477.477 0 0 0-.361.139l-2.712 2.712a.476.476 0 0 0 .2.793l9.375 2.795-3.836 4.09-6.964-.478a.474.474 0 0 0-.369.138l-1.54 1.539a.476.476 0 0 0 .142.771l4.482 2.007a7.8 7.8 0 0 1 2.334 1.607l.012.012a7.8 7.8 0 0 1 1.6 2.31l2.053 4.543a.476.476 0 0 0 .77.141l1.539-1.539a.476.476 0 0 0 .138-.369l-.478-6.963 4.09-3.832L57.1 60.02a.476.476 0 0 0 .793.2l2.712-2.713a.476.476 0 0 0 .139-.361l-.604-11.965 2.406-2.254.011-.011a3.18 3.18 0 1 0-4.5-4.5zm-16.066 4.77l2-2 10.951.555-3.885 4.147zm17.792 13.8l-2 2-2.7-9.066 4.145-3.884zm2.1-14.747L47.8 55.438a.476.476 0 0 0 .651.695l.871-.816.41 5.973-.9.9-1.77-3.915a8.746 8.746 0 0 0-1.791-2.59l-.012-.012a8.746 8.746 0 0 0-2.619-1.8l-3.85-1.731.9-.9 5.973.41-.816.871a.476.476 0 0 0 .695.651l13.2-14.089a2.228 2.228 0 1 1 3.151 3.151z" transform="translate(-37.488 -37.488)"/>
    </g>
</svg>
