<svg xmlns="http://www.w3.org/2000/svg" width="26" height="26" viewBox="0 0 26 26">
    <defs>
        <style>
            .cls-1{fill:#ed664c;opacity:0}
        </style>
    </defs>
    <g id="findflight" transform="translate(-20.01 -20.03)">
        <g id="_Group_" transform="translate(20.455 20.475)">
            <path id="_Group_2" d="M336.344 333.77a1.834 1.834 0 0 1-2.511 2.672c-.028-.028-.056-.05-.084-.078l-5.54-5.54 1.3-1.3 1.292-1.292z" class="cls-1" transform="translate(-311.771 -311.791)"/>
            <path id="_Group_3" fill="none" d="M37.447 28.03a9.432 9.432 0 1 1-9.437 9.432 9.434 9.434 0 0 1 9.437-9.432zm7 9.432a7 7 0 1 0-7 6.993 7 7 0 0 0 7-6.993z" transform="translate(-28.01 -28.03)"/>
            <ellipse id="_Group_4" cx="6.999" cy="6.993" class="cls-1" rx="6.999" ry="6.993" transform="translate(2.439 2.439)"/>
        </g>
        <g id="_Group_5" transform="translate(20.01 20.03)">
            <path id="_Compound_Path_" d="M39.869 36.7a.441.441 0 0 0-.623 0l-.967.967-1.273-1.273a9.8 9.8 0 1 0-.623.623l1.273 1.273-.978.978a.441.441 0 0 0 0 .623l5.482 5.482.058.054.025.023.017.016a2.256 2.256 0 0 0 3.091-3.284zm-10.08 2a8.892 8.892 0 1 1 8.9-8.892 8.9 8.9 0 0 1-8.9 8.892zm14.935 6.056a1.376 1.376 0 0 1-1.868.063l-.048-.044-.025-.023-5.17-5.17 1.944-1.944 5.168 5.162a1.379 1.379 0 0 1-.001 1.952z" transform="translate(-20.01 -20.03)"/>
            <path id="_Compound_Path_2" d="M71.254 63.83a7.438 7.438 0 1 0 7.446 7.438 7.45 7.45 0 0 0-7.446-7.438zm0 13.986a6.548 6.548 0 1 1 6.553-6.548 6.558 6.558 0 0 1-6.553 6.548z" transform="translate(-61.371 -61.391)"/>
            <path id="_Path_" d="M132.535 157.112l-1.945 1.2-2.126-.809a.445.445 0 1 0-.317.833l1.486.566-2.94 1.808-.706-.732a.445.445 0 1 0-.641.618l.954.989a.445.445 0 0 0 .554.07L133 157.87a.445.445 0 0 0-.467-.759z" transform="translate(-119.451 -149.514)"/>
        </g>
    </g>
</svg>
