<svg xmlns="http://www.w3.org/2000/svg" width="581.641" height="234.565" viewBox="0 0 581.641 234.565">
    <defs>
        <style>
            .cls-1{fill:#fff}
        </style>
    </defs>
    <g id="Logo" transform="translate(-146.762 -135.482)">
        <g id="Group_108" transform="translate(146.762 135.482)">
            <g id="Group_76" transform="translate(26.786 140.8)">
                <g id="Group_75">
                    <path id="Path_50" d="M556.362 823.54l7.511-8.763-20.865-5.564s.278-13.353-9.18-18.36-23.928-5.286-34.774 14.747l42.846 35.884 6.12-7.789-11.41-10.155 4.173-5.147zm-26.706-6.259l-16.969-14.188c.557-1.947 8.728-9.7 16.969-2.782 8.344 8.067 0 16.97 0 16.97z" class="cls-1" transform="translate(-499.054 -787.998)"/>
                </g>
            </g>
            <g id="Group_78" transform="translate(154.832 47.869)">
                <g id="Group_77">
                    <path id="Path_51" d="M908.952 570.677l10.757-4.184-15.773-14.748s6.543-11.642.566-20.519-18.6-15.946-37.618-3.4l20.851 51.851 9.07-3.98-5.269-14.335 6.108-2.57zm-20.6-18.116l-8.271-20.516c1.409-1.454 12.273-4.437 16.275 5.552 3.558 11.05-8 14.963-8 14.963z" class="cls-1" transform="translate(-866.883 -521.039)"/>
                </g>
            </g>
            <g id="Group_80" transform="translate(450.708 89.275)">
                <g id="Group_79">
                    <path id="Path_52" d="M1734.971 697.541l8.87 7.386 5.271-20.941s13.352.091 18.228-9.439 4.948-24-15.233-34.563l-35.28 43.344 7.875 6.01 9.992-11.549 5.205 4.1zm5.883-26.793l13.948-17.167c1.955.528 9.824 8.592 3.021 16.927-7.949 8.461-16.969.24-16.969.24z" class="cls-1" transform="translate(-1716.826 -639.985)"/>
                </g>
            </g>
            <g id="Group_82" transform="translate(57.11 114.723)">
                <g id="Group_81">
                    <path id="Path_53" d="M586.163 720.876l7.79-7.79 39.225 40.9-7.79 6.954z" class="cls-1" transform="translate(-586.163 -713.086)"/>
                </g>
            </g>
            <g id="Group_84" transform="translate(246.966 26.736)">
                <g id="Group_83">
                    <path id="Path_54" d="M1131.55 461.352l10.969-1.019 4.069 56.519-10.436.378z" class="cls-1" transform="translate(-1131.55 -460.333)"/>
                </g>
            </g>
            <g id="Group_86" transform="translate(73.245 82.453)">
                <g id="Group_85">
                    <path id="Path_55" d="M632.515 644.033l9.181-7.511 31.992 28.1-18.918-37.281 8.624-6.955 24.481 53.135-9.458 6.955z" class="cls-1" transform="translate(-632.515 -620.386)"/>
                </g>
            </g>
            <g id="Group_88" transform="translate(194.867 29.208)">
                <g id="Group_87">
                    <path id="Path_56" d="M981.89 476.28l11.46-3.068 17.6 38.772-1.9-41.76 10.722-2.789.449 58.5-11.48 2.448z" class="cls-1" transform="translate(-981.89 -467.435)"/>
                </g>
            </g>
            <g id="Group_90" transform="translate(115.53 60.614)">
                <g id="Group_89">
                    <path id="Path_57" d="M779.021 557.653l-25.037 13.91 28.516 50.213 25.316-14.6-4.869-9.041-17.039 9.807-5.494-10.293 15.022-8.555-4.728-8.624-15.3 9.25-8.345-14.535 16.969-8.9z" class="cls-1" transform="translate(-753.984 -557.653)"/>
                </g>
            </g>
            <g id="Group_92" transform="translate(271.73 24.607)">
                <g id="Group_91">
                    <path id="Path_58" d="M1231.329 454.218l-28.639.106.752 57.739 29.221-.58.1-10.268-19.658.37.153-11.666 17.287-.247.017-9.836-17.865.722-.3-16.758 19.157.388z" class="cls-1" transform="translate(-1202.69 -454.218)"/>
                </g>
            </g>
            <g id="Group_94" transform="translate(314.019 24.607)">
                <g id="Group_93">
                    <path id="Path_59" d="M1324.17 454.218l10.851 1.094v39.434l14.189-35.927 9.806 1.292 1.458 38.808 13.563-37.347 10.433 2.712-21.489 54.039-10.433-2.086-1.671-35.678-12.936 32.686-11.265-1.18z" class="cls-1" transform="translate(-1324.17 -454.218)"/>
                </g>
            </g>
            <g id="Group_96" transform="translate(387.255 46.149)">
                <g id="Group_95">
                    <path id="Path_60" d="M1562.925 529.631l15.024 6.7 4.588-8.763L1557.5 516.1l-22.951 53 9.179 3.964 8.762-19.476 14.607 6.524 3.965-9.164-14.677-6.676z" class="cls-1" transform="translate(-1534.55 -516.098)"/>
                </g>
            </g>
            <g id="Group_98" transform="translate(414.031 67.708)">
                <g id="Group_97">
                    <path id="Path_61" d="M1652.221 578.031l-40.755 42.007 8.486 6.4 7.094-8.207 10.71 7.372-3.338 8.623 8.763 6.4 18.361-55.674zm-11.4 38.53l-8.138-5.425 16.623-17.248z" class="cls-1" transform="translate(-1611.466 -578.031)"/>
                </g>
            </g>
            <g id="Group_100" transform="translate(481.353 121.747)">
                <g id="Group_99">
                    <path id="Path_62" d="M1848.051 733.264l6.677 6.816L1842 764.492l26.912-7.72 7.3 7.72-43.19 36.721-7.3-7.094 23.783-21.073-23.783 7.3 9.6-22.951-22.742 20.656-7.721-7.3z" class="cls-1" transform="translate(-1804.86 -733.264)"/>
                </g>
            </g>
            <g id="Group_102" transform="translate(245.065 215.569)">
                <g id="Group_101"/>
            </g>
            <g id="Group_103" transform="translate(176.649 138.021)">
                <path id="Path_64" d="M990.146 824.638a2.785 2.785 0 0 0 0-5.57h-10.089l.089-.457c.367-1.9.682-3.821.986-5.675 1.339-8.161 2.61-15.891 8.142-21.866 18.77 2.861 29.842-5.691 30.352-6.095a2.785 2.785 0 0 0-3.45-4.373c-.444.346-10.283 7.8-27.28 4.761l-.039-.007c-1.432-.257-2.916-.589-4.448-1.005l-.228-.052c-2.487-.457-5.015-.993-7.461-1.511-9.253-1.96-17.993-3.812-26.06-2.083-9.306 1.995-16.008 8.583-20.488 20.141l-.1.267-.047.282c-2.39 14.339 4.952 19.627 9.542 21.5a21.1 21.1 0 0 0 7.906 1.463c5.524 0 10.911-1.928 13.244-5.261a2.785 2.785 0 1 0-4.563-3.194c-1.445 2.064-8.554 4.259-14.48 1.837-5.282-2.158-7.422-7.394-6.2-15.151 8.3-21.089 22.34-18.114 40.095-14.353 2.445.518 4.972 1.054 7.5 1.519l.064.017c-4.935 6.7-6.232 14.591-7.49 22.261-.3 1.817-.606 3.7-.959 5.523l-.293 1.511h-10.743a2.785 2.785 0 0 0 0 5.57h9.6c-1.681 7.842-3.8 15.749-7.2 22.886-2.631 5.53-5.711 8.654-9.987 10.131-4.157 1.435-9.083.918-12.257-1.288a7.837 7.837 0 0 1-3.453-6.593 11.52 11.52 0 0 1 3.03-8.449 6.758 6.758 0 0 1 4.392-2.262 2.785 2.785 0 0 0 0-5.57 12.253 12.253 0 0 0-8.377 3.94 17.031 17.031 0 0 0-4.613 12.473 13.479 13.479 0 0 0 5.844 11.034 18.619 18.619 0 0 0 10.545 3.089 20.631 20.631 0 0 0 6.708-1.11c7.521-2.6 11.135-8.664 13.2-13 3.806-8 6.073-16.724 7.863-25.279z" class="cls-1" transform="translate(-929.555 -780.014)"/>
                <path id="Path_65" d="M1172.235 844.981a2.784 2.784 0 0 0-3.093 2.438c-.084.708-.178 1.418-.274 2.128a13.75 13.75 0 0 0-2.043-1.711 14.594 14.594 0 0 0-16.013-.573c-5.8 3.651-9.239 15.687-10.7 22.045a2.717 2.717 0 0 0-.144.639c-.3 1.352-.5 2.385-.6 2.935l-.075.205c-2.649 7.238-4.47 10.553-9.7 9.672-4.853-.816-4.812-6.32-4.725-7.7 2.914-9.527 6.786-25.388 6.969-26.139a2.785 2.785 0 0 0-5.412-1.318c-.044.184-4.078 16.7-6.959 26.071l-.01.033c-.312 1.014-.611 1.945-.889 2.76a6.571 6.571 0 0 1-4.717 4.306c-3.7 1.063-7.719-.071-8.835-.978-1.359-1.1-1.345-4.75-.911-6.853.5-2.334 9.631-35.774 13.107-48.461a2.785 2.785 0 1 0-5.372-1.472c-.512 1.869-12.547 45.8-13.182 48.772-.186.875-1.683 8.657 2.846 12.337 1.887 1.533 5.384 2.654 9.131 2.654a17.283 17.283 0 0 0 4.755-.646 12.781 12.781 0 0 0 5.6-3.242 10.288 10.288 0 0 0 7.68 5.366 15.046 15.046 0 0 0 2.492.217 10.883 10.883 0 0 0 8.682-4.09 18.419 18.419 0 0 0 2.277-3.529 12.139 12.139 0 0 0 6.859 5.256 15.034 15.034 0 0 0 10.3-.773q-.945 2.348-1.961 4.667c-1.118 2.54-3.632 6.9-7.9 7.58-2.83.448-6.145-.7-7.169-4.285a2.785 2.785 0 1 0-5.355 1.53 11.46 11.46 0 0 0 11.276 8.426 13.585 13.585 0 0 0 2.121-.169c5.1-.81 9.41-4.658 12.129-10.837a157.084 157.084 0 0 0 12.257-44.173 2.786 2.786 0 0 0-2.442-3.088zm-21.649 35.792c-4.544-1.364-5.291-6.155-5.083-10.055 1.625-7.151 4.742-16.516 8.276-18.741a9.094 9.094 0 0 1 9.9.456c1.848 1.265 2.872 2.954 2.61 4.3l-.041.3c-.86 10.3-4.3 18.744-6.344 20.645l-.313.291-.212.372c-1.117 1.959-5.287 3.485-8.793 2.432z" class="cls-1" transform="translate(-1039.543 -806.709)"/>
                <circle id="Ellipse_9" cx="3.756" cy="3.756" r="3.756" class="cls-1" transform="translate(88.548 26.637)"/>
                <path id="Path_66" d="M1393.792 858.672c-1-1.235-2.043-2.423-3.053-3.572-3.264-3.713-6.349-7.232-7.478-11.807.282-1.041.433-1.611.44-1.636a2.785 2.785 0 1 0-5.384-1.422c-.028.107-2.809 10.608-7.318 25.578a2.783 2.783 0 0 0-4.632 2.494 36.879 36.879 0 0 0 1.505 5.925 12.249 12.249 0 0 1-3.77 4.85c-1.813 1.181-3.822.992-6.679.57-2.212-.327-2.4-6.04-2.017-9.151a176.254 176.254 0 0 0 6.2-20.747h8.549a2.785 2.785 0 1 0 0-5.57h-7.215c.983-4.232 2-8.862 3.057-13.935a2.785 2.785 0 0 0-5.453-1.137c-1.153 5.527-2.259 10.538-3.329 15.072h-6.464a2.785 2.785 0 0 0 0 5.57h5.109c-2.9 11.5-5.528 19.348-8.064 24.133-3.466 6.536-6.138 6.62-9.274 6.049-2.487-.452-3.154-1.5-3.372-1.844-1.558-2.451-.189-7.632.811-11.414.34-1.284.66-2.5.888-3.615 2.532-12.466-1.186-17.31-4.75-19.179-3.425-1.794-7.224-1.331-10.482-.309l5.948-21.506a2.785 2.785 0 1 0-5.368-1.485l-17.316 62.616a2.785 2.785 0 1 0 5.368 1.485l9.512-34.391c2.727-1.248 7.005-2.915 9.754-1.474 3.708 1.944 2.548 9.835 1.878 13.136-.195.959-.5 2.1-.814 3.3-1.333 5.042-2.992 11.319-.126 15.826a10.055 10.055 0 0 0 7.076 4.335 16.425 16.425 0 0 0 2.938.283c4.109 0 7.343-1.85 10.188-5.828 1.455 3.967 4.205 5.034 5.952 5.292a28.2 28.2 0 0 0 4.1.359c3.612 0 6.974-1.117 10.013-5.266.063.1.126.2.191.3 2.5 3.677 6.992 5.756 12.133 5.756a20.09 20.09 0 0 0 3.057-.239c6.5-1.005 11.711-5.007 13.266-10.2 1.496-4.994-.377-10.781-5.575-17.202zm.24 15.6c-.942 3.142-4.388 5.611-8.781 6.29-3.32.513-7.622-.044-9.736-3.149a18.48 18.48 0 0 1-1.6-3 58.175 58.175 0 0 0 2.044-5.75c2.011-6.646 3.7-12.474 4.983-17a58.691 58.691 0 0 0 5.62 7.112c.973 1.107 1.979 2.251 2.907 3.4 3.906 4.835 5.486 9.019 4.563 12.098z" class="cls-1" transform="translate(-1174.159 -805.128)"/>
            </g>
            <g id="Group_105">
                <g id="Group_104">
                    <path id="Path_67" d="M999.746 546.083C930.311 445.876 825.063 388.4 710.986 388.4c-111.627 0-215.476 55.49-284.919 152.24l-3.959-2.842a393.164 393.164 0 0 1 57.1-63.73 366.974 366.974 0 0 1 68.692-48.624 344.709 344.709 0 0 1 78.017-31.018 337.564 337.564 0 0 1 171.734.418 345.184 345.184 0 0 1 79.283 32.174 368.212 368.212 0 0 1 69.495 50.373 394.813 394.813 0 0 1 57.324 65.917z" class="cls-1" transform="translate(-422.108 -383.53)"/>
                </g>
            </g>
            <g id="Group_107" transform="translate(70.775 97.622)">
                <g id="Group_106">
                    <path id="Path_68" d="M629.59 789.874l-4.17-2.522a256.938 256.938 0 0 1 91.306-89.425 255.164 255.164 0 0 1 253.787-.488 257.007 257.007 0 0 1 91.137 88.24l-4.151 2.554c-45.993-74.763-125.789-119.4-213.454-119.4-88.458.002-168.628 45.249-214.455 121.041z" class="cls-1" transform="translate(-625.42 -663.963)"/>
                </g>
            </g>
        </g>
    </g>
</svg>
