<svg xmlns="http://www.w3.org/2000/svg" width="38.011" height="29" viewBox="0 0 38.011 29">
    <g>
        <path d="M6.362 22.343c-.059-.007-.117-.017-.173-.029a.6.6 0 0 1-.5-.6V14.23a.6.6 0 0 1 .419-.591l.163.579-.161-.577a23.662 23.662 0 0 1 6.567-.15 89.654 89.654 0 0 1 10.282 1.276 4 4 0 0 1 1.973.884 1.1 1.1 0 0 1 .165 1.442 2.982 2.982 0 0 1-1.078.961 18.134 18.134 0 0 1-4.519 1.637 16.34 16.34 0 0 0 7.887-.508 18.583 18.583 0 0 1 8.7-.567 3.291 3.291 0 0 1 1.509.63 1.286 1.286 0 0 1 .476 1.211 2.177 2.177 0 0 1-.523 1.06 8.792 8.792 0 0 1-2.342 1.79A34.083 34.083 0 0 1 25.1 26.365c-4.123.674-8.019.76-9.448.069-.328-.159-.9-.449-1.567-.792-2.423-1.238-6.266-3.2-7.462-3.283h-.035c-.089 0-.164-.007-.226-.015zm.493-1.165c1.574.233 5.336 2.155 7.743 3.385.608.311 1.124.574 1.544.778 1.232.6 4.86.477 8.78-.163a32.951 32.951 0 0 0 9.741-2.931 7.616 7.616 0 0 0 2.005-1.512 1.048 1.048 0 0 0 .255-.447c0-.034-.015-.073-.066-.118a2.27 2.27 0 0 0-.987-.37 17.678 17.678 0 0 0-8.224.558c-3.2.77-6.323 1.524-10.764-.219l.2-.563-.206.564a.61.61 0 0 1-.338-.778.585.585 0 0 1 .5-.388 21.466 21.466 0 0 0 6.407-1.965 2.039 2.039 0 0 0 .65-.521 3.174 3.174 0 0 0-1.388-.546 88.472 88.472 0 0 0-10.1-1.247 28.723 28.723 0 0 0-5.751.006v6.478zm-4.976-9.153h2.4a1 1 0 0 1 .721.312l-.409.427.409-.427.008.008a1.082 1.082 0 0 1 .29.741v9.127a1.079 1.079 0 0 1-.3.75l-.411-.424.413.429a.6.6 0 0 1-.048.045 1 1 0 0 1-.677.267h-2.4a1 1 0 0 1-.725-.312.609.609 0 0 1-.043-.05 1.079 1.079 0 0 1-.258-.7v-9.129a1.081 1.081 0 0 1 .3-.752 1 1 0 0 1 .73-.312zm2.261 1.207H2.017v8.842H4.14v-8.842zM27.6 1.745a5.961 5.961 0 0 1 4.3 1.849 6.479 6.479 0 0 1 0 8.927 5.934 5.934 0 0 1-8.608 0 6.479 6.479 0 0 1 0-8.927 5.961 5.961 0 0 1 4.3-1.849zm3.481 2.7a4.8 4.8 0 0 0-6.963 0 5.241 5.241 0 0 0 0 7.221 4.8 4.8 0 0 0 6.963 0 5.241 5.241 0 0 0 0-7.221z" transform="translate(-5.719 -10.719) translate(5.642 10.783)"/>
        <path d="M7.507 6.547a1.308 1.308 0 0 1-.116.554 1.235 1.235 0 0 1-.33.429 1.628 1.628 0 0 1-.521.285 2.479 2.479 0 0 1-.689.126l-.085.827a.164.164 0 0 1-.013.043.074.074 0 0 1-.036.035.27.27 0 0 1-.074.021.789.789 0 0 1-.124.008.768.768 0 0 1-.139-.01.333.333 0 0 1-.08-.023.072.072 0 0 1-.04-.038.09.09 0 0 1 0-.056l.087-.823A3.275 3.275 0 0 1 5 7.867c-.1-.025-.2-.051-.278-.078a1.447 1.447 0 0 1-.204-.089.566.566 0 0 1-.126-.085.215.215 0 0 1-.055-.105.8.8 0 0 1-.016-.179 1.032 1.032 0 0 1 .008-.139.445.445 0 0 1 .023-.092.093.093 0 0 1 .04-.049.123.123 0 0 1 .06-.013.313.313 0 0 1 .14.055 2.282 2.282 0 0 0 .242.122 2.425 2.425 0 0 0 .368.124 2.086 2.086 0 0 0 .521.057 1.34 1.34 0 0 0 .821-.213.688.688 0 0 0 .281-.583.656.656 0 0 0-.1-.376.947.947 0 0 0-.273-.259 1.892 1.892 0 0 0-.385-.187l-.438-.157a4.729 4.729 0 0 1-.438-.183 1.594 1.594 0 0 1-.382-.255 1.172 1.172 0 0 1-.27-.372 1.254 1.254 0 0 1-.1-.538A1.286 1.286 0 0 1 4.52 3.8a1.086 1.086 0 0 1 .263-.386 1.375 1.375 0 0 1 .442-.27 2.061 2.061 0 0 1 .622-.127l.075-.77a.176.176 0 0 1 .014-.047.076.076 0 0 1 .035-.035.2.2 0 0 1 .073-.022c.031 0 .073-.005.126-.005a1.031 1.031 0 0 1 .139.008.219.219 0 0 1 .083.025.076.076 0 0 1 .036.04.159.159 0 0 1 .008.053l-.085.762a2.134 2.134 0 0 1 .239.039c.082.02.16.042.231.065a1.459 1.459 0 0 1 .2.081.483.483 0 0 1 .12.074.216.216 0 0 1 .047.057.336.336 0 0 1 .021.061c.005.022.009.049.013.079a.835.835 0 0 1 .005.1 1.194 1.194 0 0 1-.005.126.343.343 0 0 1-.022.092.106.106 0 0 1-.031.047.073.073 0 0 1-.046.014.316.316 0 0 1-.133-.049c-.061-.033-.138-.068-.231-.107a2.9 2.9 0 0 0-.321-.107 1.583 1.583 0 0 0-.408-.049 1.689 1.689 0 0 0-.436.049.824.824 0 0 0-.294.139.54.54 0 0 0-.164.216.721.721 0 0 0-.051.274.667.667 0 0 0 .1.381.935.935 0 0 0 .274.259 1.943 1.943 0 0 0 .387.182L6.3 5.2c.151.055.3.114.443.181a1.485 1.485 0 0 1 .387.252 1.177 1.177 0 0 1 .274.371 1.26 1.26 0 0 1 .1.54z" transform="translate(-5.719 -10.719) translate(27.403 13.517)"/>
        <path fill="none" d="M0 0H38V29H0z" transform="translate(-5.719 -10.719) translate(5.719 10.719)"/>
    </g>
</svg>
