<svg xmlns="http://www.w3.org/2000/svg" width="30.6" height="30.6" viewBox="0 0 30.6 30.6">
    <defs>
        <style>
            .cls-1,.cls-2{stroke:none}.cls-2{fill:#000}
        </style>
    </defs>
    <g id="pluscircle" transform="translate(-3.2 -3.2)">
        <g id="Path_87">
            <path d="M20.167 23.65h-3.334c-.217 0-.388-.17-.388-.388v-2.707h-2.707c-.218 0-.388-.17-.388-.388v-3.334c0-.217.17-.388.388-.388h2.707v-2.707c0-.218.17-.388.388-.388h3.334c.217 0 .388.17.388.388v2.707h2.707c.218 0 .388.17.388.388v3.334c0 .217-.17.388-.388.388h-2.707v2.707c0 .218-.17.388-.388.388zm-2.946-.776h2.558v-2.707c0-.218.17-.388.388-.388h2.707V17.22h-2.707c-.218 0-.388-.17-.388-.388v-2.707H17.22v2.707c0 .218-.17.388-.388.388h-2.707v2.558h2.707c.218 0 .388.17.388.388v2.707z" class="cls-1"/>
            <path d="M16.833 13.5c-.133 0-.238.105-.238.238v2.857h-2.857c-.133 0-.238.105-.238.238v3.334c0 .133.105.238.238.238h2.857v2.857c0 .133.105.238.238.238h3.334c.133 0 .238-.105.238-.238v-2.857h2.857c.133 0 .238-.105.238-.238v-3.334c0-.133-.105-.238-.238-.238h-2.857v-2.857c0-.133-.105-.238-.238-.238h-3.334m6.19 6.429h-2.856c-.134 0-.238.104-.238.238v2.857H17.07v-2.857c0-.134-.104-.238-.238-.238h-2.857V17.07h2.857c.134 0 .238-.104.238-.238v-2.857h2.858v2.857c0 .134.104.238.238.238h2.857v2.858m-6.19-6.729h3.333c.296 0 .538.241.538.538v2.557h2.557c.297 0 .538.242.538.538v3.334c0 .296-.241.538-.538.538h-2.557v2.557c0 .297-.242.538-.538.538h-3.334c-.296 0-.538-.241-.538-.538v-2.557h-2.557c-.297 0-.538-.242-.538-.538v-3.334c0-.296.241-.538.538-.538h2.557v-2.557c0-.297.242-.538.538-.538zm2.795 1.076H17.37v2.557c0 .297-.241.538-.538.538h-2.557v2.258h2.557c.297 0 .538.241.538.538v2.557h2.258v-2.557c0-.297.241-.538.538-.538h2.557V17.37h-2.557c-.297 0-.538-.241-.538-.538v-2.557z" class="cls-2"/>
        </g>
        <g id="Path_88">
            <path d="M18.5 33.65c-8.354 0-15.15-6.796-15.15-15.15S10.146 3.35 18.5 3.35s15.15 6.796 15.15 15.15-6.796 15.15-15.15 15.15zm0-29.268c-7.785 0-14.118 6.333-14.118 14.118S10.715 32.618 18.5 32.618 32.618 26.285 32.618 18.5 26.285 4.382 18.5 4.382z" class="cls-1"/>
            <path d="M18.5 3.5c-8.268 0-15 6.732-15 15s6.732 15 15 15 15-6.732 15-15-6.732-15-15-15m0 29.268c-7.866 0-14.268-6.402-14.268-14.268 0-7.866 6.402-14.268 14.268-14.268 7.866 0 14.268 6.402 14.268 14.268 0 7.866-6.402 14.268-14.268 14.268m0-29.568c8.436 0 15.3 6.864 15.3 15.3s-6.864 15.3-15.3 15.3S3.2 26.936 3.2 18.5 10.064 3.2 18.5 3.2zm0 29.268c7.702 0 13.968-6.266 13.968-13.968S26.202 4.532 18.5 4.532 4.532 10.798 4.532 18.5 10.798 32.468 18.5 32.468z" class="cls-2"/>
        </g>
    </g>
</svg>
