<svg xmlns="http://www.w3.org/2000/svg" width="728" height="31.861" viewBox="0 0 728 31.861">
    <defs>
        <style>
            .cls-1,.cls-3{opacity:.3}.cls-2{fill:#585858}.cls-3{fill:none;stroke:#585858}
        </style>
    </defs>
    <g id="topLine" transform="translate(-348.5 -2780.499)">
        <g id="Group_176" class="cls-1" transform="translate(189.1 21)">
            <path id="Union_2" d="M5.518 31.746s8.447-6.414 6.849-14.67A8.892 8.892 0 1 1 17.78 8.89c0 .163 0 .325-.013.486.507 4.875.62 16.372-8.379 22.369a2.316 2.316 0 0 1-1.061.116c-1.145 0-2.809-.115-2.809-.115z" class="cls-2" transform="translate(534.5 2759.499)"/>
            <path id="Union_3" d="M5.518 31.746s8.447-6.414 6.849-14.67A8.892 8.892 0 1 1 17.78 8.89c0 .163 0 .325-.013.486.507 4.875.62 16.372-8.379 22.369a2.316 2.316 0 0 1-1.061.116c-1.145 0-2.809-.115-2.809-.115z" class="cls-2" transform="translate(555.346 2759.499)"/>
        </g>
        <g id="Group_177" class="cls-1" transform="translate(662.6 2780.499)">
            <path id="Union_2-2" d="M5.518 31.746s8.447-6.414 6.849-14.67A8.892 8.892 0 1 1 17.78 8.89c0 .163 0 .325-.013.486.507 4.875.62 16.372-8.379 22.369a2.316 2.316 0 0 1-1.061.116c-1.145 0-2.809-.115-2.809-.115z" class="cls-2" transform="rotate(180 19.4 15.93)"/>
            <path id="Union_3-2" d="M5.518 31.746s8.447-6.414 6.849-14.67A8.892 8.892 0 1 1 17.78 8.89c0 .163 0 .325-.013.486.507 4.875.62 16.372-8.379 22.369a2.316 2.316 0 0 1-1.061.116c-1.145 0-2.809-.115-2.809-.115z" class="cls-2" transform="rotate(180 8.977 15.93)"/>
        </g>
        <path id="Line_23" d="M0 0L296 0" class="cls-3" transform="translate(348.5 2796.5)"/>
        <path id="Line_24" d="M0 0L296 0" class="cls-3" transform="translate(780.5 2796.5)"/>
    </g>
</svg>
